####
#
# OBJ File Generated by Meshlab
#
####
# Object MARS3x2.obj
#
# Vertices: 152
# Faces: 300
#
####
vn 0.9356973 0.3528038 0.0000020
v 2.3304238 1.2622032 -0.0114380
vn 0.9242592 0.3484311 -0.1560150
v 2.3474205 1.2403913 -0.2237600
vn 0.9243798 0.3484953 0.1551549
v 2.2600121 1.3343401 0.2239420
vn 0.9356601 0.3529022 -0.0004010
v 2.4154525 1.1750346 -0.1529550
vn 0.0023893 0.0010798 -0.9999966
v 1.7133198 0.8607144 -0.2239780
vn 0.9244023 0.3484142 -0.1552030
v 2.5581284 1.0285362 -0.2239780
vn 0.9486785 0.3162422 -0.0000470
v 2.6877222 0.8959418 -0.0174700
vn 0.9397027 0.3127096 -0.1384610
v 2.6852493 0.8934874 -0.2239670
vn 0.0001117 0.0000354 -1.0000000
v 1.4937022 0.4199097 -0.2239780
vn 0.9243614 0.3485303 0.1551861
v 2.5565453 1.0303768 0.2239380
vn 0.9477981 0.2730981 -0.1646090
v 2.2686644 0.4744050 -0.2239740
vn 0.9395991 0.3132011 0.1380531
v 2.6876061 0.8958766 0.2239380
vn 0.0010819 0.0004214 0.9999993
v 2.0006101 0.6909733 0.2239780
vn 0.9478029 0.2731072 0.1645669
v 2.2316062 0.4369821 0.2239780
vn 0.9478258 0.2730097 -0.1645960
v 2.0047431 0.2087726 -0.2239780
vn 0.9609060 0.2768748 -0.0000130
v 2.1977382 0.4028535 -0.0557610
vn 0.9609129 0.2768507 -0.0000970
v 1.8488884 0.0518401 -0.1086100
vn 0.9477041 0.2731413 -0.1650780
v 1.7767316 -0.0197481 -0.2239740
vn 0.9243697 0.3485104 -0.1551810
v 1.5769323 2.0343881 -0.2239270
vn 0.9356955 0.3528089 -0.0000010
v 1.8600557 1.7444196 0.0575160
vn 0.9356962 0.3528068 -0.0000020
v 2.0561202 1.5434098 -0.0130170
vn 0.9243503 0.3485321 -0.1552480
v 1.8068601 1.7986535 -0.2239720
vn 0.9243557 0.3485279 0.1552249
v 1.9163809 1.6865232 0.2239420
vn 0.0001252 0.0000502 -1.0000000
v 0.6566321 1.0977281 -0.2239780
vn 0.9243852 0.3484637 -0.1551940
v 2.0497370 1.5499003 -0.2239590
vn 0.9241869 0.3480774 -0.1572280
v 2.1675086 1.4239616 -0.2239760
vn 0.9357444 0.3526781 -0.0008010
v 2.1714480 1.4251844 -0.1700440
vn 0.9243529 0.3485274 0.1552430
v 2.1833794 1.4128664 0.2239710
vn 0.0005940 0.0002150 0.9999999
v 1.3504806 0.8192751 0.2239780
vn 0.0000177 0.0000035 -1.0000000
v 0.5899399 -0.0630534 -0.2239780
vn 0.9477926 0.2731510 -0.1645529
v 1.5600593 -0.2386549 -0.2239670
vn 0.0002786 0.0000679 -1.0000000
v 0.5746550 -0.6184773 -0.2239780
vn 0.9609076 0.2768692 0.0000220
v 1.4342841 -0.3653536 0.0014100
vn 0.9478170 0.2730619 0.1645610
v 1.7761426 -0.0213567 0.2239720
vn 0.9478327 0.2730309 -0.1645220
v 1.2022555 -0.5987978 -0.2239510
vn 0.9477502 0.2731688 0.1647680
v 1.3173922 -0.4822666 0.2239680
vn 0.9478288 0.2730230 0.1645569
v 1.0770819 -0.7247561 0.2239450
vn 0.9476779 0.2730486 -0.1653820
v 0.8677359 -0.9334615 -0.2239770
vn 0.9609120 0.2768542 -0.0001740
v 0.8629835 -0.9402080 -0.0884940
vn 0.9478820 0.2731392 0.1640571
v 0.7426586 -1.0612499 0.2236780
vn 0.9243320 0.3485944 -0.1552170
v 1.2782714 2.3401577 -0.2238980
vn 0.9356965 0.3528059 -0.0000130
v 1.4516230 2.1631167 -0.0406020
vn 0.9243525 0.3485513 0.1551920
v 1.5809466 2.0303595 0.2238980
vn 0.9243449 0.3485548 0.1552290
v 1.7175560 1.8904040 0.2239500
vn 0.0002418 0.0000976 1.0000000
v 0.4686661 0.8616534 0.2239780
vn 0.0000120 0.0000035 1.0000000
v 0.0807700 0.2193417 0.2239780
vn -0.0000120 -0.0000035 1.0000000
v 0.7617385 0.0462115 0.2239780
vn 0.0000226 0.0000057 -1.0000000
v -0.2815487 -0.5865974 -0.2239780
vn 0.0019700 0.0002800 0.9999980
v 0.3211608 -0.9786541 0.2239850
vn 0.9477878 0.2731822 -0.1645291
v 0.5697597 -1.2350482 -0.2239600
vn 0.9609040 0.2768817 0.0000030
v 0.2149789 -1.5922546 0.0384700
vn 0.9477922 0.2731088 0.1646261
v 0.3037907 -1.5026832 0.2239660
vn 0.9609040 0.2768817 -0.0000160
v -0.1180331 -1.9273326 -0.1371860
vn 0.9478142 0.2731072 0.1645020
v -0.1360742 -1.9454713 0.2238980
vn 0.9241009 0.3491467 -0.1553520
v 0.9763067 2.6503932 -0.2239220
vn 0.9237995 0.3486955 -0.1581330
v 0.9352801 2.6878655 -0.2238250
vn 0.8804858 0.4519989 -0.1429750
v 0.9146171 2.7127614 -0.2238570
vn -0.9462734 -0.2759830 -0.1685230
v 0.8492282 2.6607721 -0.2238040
vn -0.9691888 0.0254587 -0.2450000
v 0.8922838 2.7063918 -0.2238970
vn -0.9609153 -0.2768421 -0.0005540
v 0.7366539 2.5498099 -0.1643580
vn 0.8866388 0.4624626 -0.0002670
v 0.9151765 2.7130589 -0.1614800
vn -0.9998384 0.0179838 0.0000100
v 0.8922789 2.7064052 0.0001100
vn 0.9222730 0.3522643 0.1591300
v 0.9552495 2.6716340 0.2239210
vn 0.9356986 0.3528005 0.0000050
v 1.1019517 2.5215960 0.0384420
vn 0.8867483 0.4622525 0.0001240
v 0.9151765 2.7130589 0.0994160
vn 0.2861448 0.8555155 0.4315259
v 0.9050500 2.7126327 0.2230450
vn -0.9924982 -0.1222517 -0.0013930
v 0.8922762 2.7064037 0.1741460
vn 0.9357170 0.3527514 -0.0003530
v 1.1081953 2.5151823 -0.1277250
vn -0.9476897 -0.2724957 -0.1662241
v 0.6363360 2.4475265 -0.2239780
vn -0.9485304 -0.2726732 0.1610571
v 0.6723397 2.4849753 0.2234980
vn 0.9241869 0.3483348 -0.1566570
v 1.1055133 2.5125923 -0.2239530
vn -0.9478015 -0.2730954 -0.1645941
v -0.0167315 1.7917110 -0.2239640
vn -0.0006576 -0.0000523 0.9999998
v 0.5202518 1.4338039 0.2239800
vn -0.0000064 -0.0000021 -1.0000000
v 0.6583462 1.3435793 -0.2239780
vn -0.0001308 -0.0000502 1.0000000
v -0.9285344 -0.3360949 0.2239780
vn 0.0000742 0.0000163 1.0000000
v 0.8280765 -0.1985450 0.2239780
vn -0.0002305 -0.0000792 1.0000000
v -0.2629468 -0.8702087 0.2239800
vn 0.0054391 0.0020167 0.9999832
v 0.0184272 -1.4513452 0.2239800
vn 0.9478121 0.2730429 -0.1646200
v -0.4227805 -2.2339652 -0.2239360
vn -0.9243923 -0.3484820 -0.1551100
v -1.0965657 -2.5270922 -0.2238780
vn 0.9609067 0.2768727 -0.0000010
v -0.5450755 -2.3570366 -0.0367180
vn 0.9478396 0.2723987 0.1655270
v -0.6223812 -2.4348288 0.2239660
vn -0.9242944 -0.3486587 0.1552969
v -1.1206292 -2.5024390 0.2239620
vn 0.9936590 0.1124300 -0.0011640
v -0.8908229 -2.7049408 -0.1761450
vn 0.9597499 0.2226480 -0.1711959
v -0.8866646 -2.6982791 -0.2239740
vn -0.7091513 -0.6598024 -0.2485261
v -0.9145041 -2.7137754 -0.2238100
vn 0.9935493 0.1134008 -0.0000160
v -0.8908229 -2.7049422 0.0376260
vn -0.8531914 -0.5215980 0.0000090
v -0.9144552 -2.7137973 0.0861170
vn 0.9569865 0.0237100 0.2891621
v -0.8906356 -2.7047422 0.2240900
vn -0.8558547 -0.5063218 0.1055980
v -0.9144552 -2.7137988 0.2222210
vn -0.9250685 -0.3478943 0.1523739
v -0.9870179 -2.6392620 0.2232540
vn -0.9356962 -0.3528068 0.0000020
v -0.9925798 -2.6337762 -0.0387970
vn -0.9478580 -0.2730812 -0.1642921
v 0.4543416 2.2657242 -0.2238320
vn -0.9609073 -0.2768705 0.0000020
v 0.3174839 2.1280293 -0.0335970
vn 0.9243507 0.3485394 0.1552290
v 1.3068804 2.3114371 0.2239240
vn -0.9478247 -0.2730640 0.1645129
v 0.2141226 2.0240359 0.2238960
vn -0.9477958 -0.2730973 0.1646240
v -0.0942107 1.7136846 0.2239760
vn 0.9243506 0.3485407 -0.1552270
v 1.4752779 2.1387463 -0.2239560
vn -0.9477937 -0.2731574 -0.1645360
v -0.4087996 1.3970237 -0.2239280
vn -0.9478101 -0.2731525 0.1644500
v -0.5284591 1.2764465 0.2238030
vn -0.0002008 0.0001103 -1.0000000
v 0.4791171 1.6022685 -0.2239840
vn -0.0000474 -0.0000177 -1.0000000
v -0.0069749 0.5484872 -0.2239780
vn -0.0009412 -0.0003429 -0.9999995
v -0.9342691 -0.4688472 -0.2239790
vn -0.0004525 -0.0001499 0.9999999
v -0.8941443 -0.6033537 0.2239780
vn -0.9243413 -0.3485584 -0.1552430
v -1.5421971 -2.0702233 -0.2239790
vn -0.9356973 -0.3528038 -0.0000010
v -1.5993772 -2.0116429 -0.0522660
vn -0.9243957 -0.3485237 0.1549960
v -1.6307530 -1.9794827 0.2238570
vn -0.9243340 -0.3485154 -0.1553821
v -1.2870891 -2.3305185 -0.2239460
vn -0.9243488 -0.3485377 0.1552440
v -1.4129690 -2.2027054 0.2239580
vn 0.9478018 0.2731045 -0.1645770
v -0.0088013 -1.8173287 -0.2239450
vn -0.9356970 -0.3528047 -0.0000230
v -1.3232661 -2.2947233 0.0291570
vn -0.9357187 -0.3527473 -0.0000570
v -1.2236462 -2.3968253 -0.0808140
vn -0.9609067 -0.2768727 0.0000230
v -0.4757627 1.3298472 0.0559760
vn -0.9609046 -0.2768795 -0.0002430
v -0.7850717 1.0186050 -0.1001450
vn -0.9476927 -0.2728965 -0.1655480
v -0.8422236 0.9589216 -0.2239610
vn -0.9478173 -0.2730719 0.1645420
v -1.0485142 0.7534965 0.2239360
vn -0.9478219 -0.2730386 -0.1645710
v -1.1819205 0.6192361 -0.2239750
vn -0.9477845 -0.2730798 -0.1647181
v -1.6123357 0.1857760 -0.2239780
vn -0.9609054 -0.2768769 -0.0000140
v -1.3044655 0.4959752 -0.0237300
vn -0.0022083 -0.0007573 0.9999973
v -0.5489036 0.6357774 0.2239840
vn -0.0000438 -0.0000085 -1.0000000
v -0.1969908 0.1566913 -0.2239780
vn -0.0010090 -0.0001902 0.9999995
v -0.8418721 0.1940803 0.2239800
vn -0.0001174 -0.0000382 -1.0000000
v -1.4023256 -0.9745445 -0.2239780
vn -0.0041253 -0.0013746 0.9999906
v -1.3911216 -1.0423963 0.2239820
vn -0.9243424 -0.3485126 -0.1553391
v -2.1685565 -1.4272228 -0.2239740
vn -0.0002588 -0.0001004 -1.0000000
v -0.7191920 -1.1147603 -0.2239780
vn -0.9243739 -0.3484976 -0.1551850
v -1.9830357 -1.6183156 -0.2239420
vn -0.9357051 -0.3527833 -0.0000200
v -2.0297685 -1.5704700 -0.0895820
vn -0.9243702 -0.3484983 0.1552060
v -2.1212900 -1.4764099 0.2239170
vn -0.9243569 -0.3485216 -0.1552320
v -1.7755889 -1.8309907 -0.2239780
vn -0.0111376 -0.0044272 0.9999282
v -1.4596741 -1.5255580 0.2239780
vn -0.9242852 -0.3489522 0.1546910
v -1.8767285 -1.7273111 0.2236540
vn -0.9260348 -0.3459781 0.1508600
v -1.7768242 -1.8246331 0.2234910
vn -0.9252236 -0.3466873 0.1541730
v -1.7536876 -1.8530800 0.2239680
vn -0.0015479 -0.0007177 0.9999986
v -1.0269135 -1.6583980 0.2239820
vn -0.9357136 -0.3527607 0.0000970
v -1.7431843 -1.8642199 0.1021680
vn -0.9609146 -0.2768451 -0.0000980
v -1.6886113 0.1094537 -0.1355200
vn -0.9478343 -0.2730946 0.1644070
v -1.6771343 0.1209760 0.2238260
vn -0.9477046 -0.2731150 -0.1651190
v -2.0985839 -0.3041082 -0.2239680
vn -0.9478275 -0.2730253 0.1645610
v -1.9751458 -0.1789022 0.2239340
vn -0.9477375 -0.2731292 -0.1649061
v -2.5184824 -0.7263995 -0.2239760
vn -0.9478073 -0.2730960 0.1645600
v -2.3175988 -0.5234782 0.2239690
vn -0.9609050 -0.2768782 -0.0002540
v -2.1464553 -0.3512467 -0.1476070
vn -0.9244054 -0.3484808 -0.1550351
v -2.5540881 -1.0321298 -0.2237580
vn -0.9243847 -0.3484564 -0.1552129
v -2.3806100 -1.2105901 -0.2239710
vn -0.9357039 -0.3527862 0.0000010
v -2.5262675 -1.0615002 0.0514110
vn -0.9243460 -0.3485633 0.1552040
v -2.5165174 -1.0711727 0.2239160
vn -0.9243820 -0.3488463 0.1543511
v -2.3989813 -1.1918170 0.2235980
vn -0.9356965 -0.3528059 -0.0000180
v -2.3140593 -1.2789850 -0.0133860
vn -0.9486650 -0.3162825 -0.0003480
v -2.6877058 -0.8958859 -0.1365770
vn -0.9396086 -0.3126834 -0.1391580
v -2.6841137 -0.8934648 -0.2239780
vn -0.9395982 -0.3131739 0.1381209
v -2.6873026 -0.8955492 0.2239650
# 152 vertices, 0 vertices normals

f 12//12 7//7 10//10
f 2//2 26//26 27//27
f 4//4 2//2 27//27
f 4//4 27//27 1//1
f 1//1 21//21 3//3
f 6//6 2//2 4//4
f 6//6 5//5 2//2
f 5//5 26//26 2//2
f 1//1 3//3 10//10
f 29//29 10//10 3//3
f 6//6 4//4 7//7
f 7//7 4//4 1//1
f 7//7 1//1 10//10
f 8//8 6//6 7//7
f 6//6 9//9 5//5
f 9//9 6//6 8//8
f 12//12 10//10 13//13
f 16//16 11//11 8//8
f 16//16 8//8 7//7
f 16//16 7//7 12//12
f 14//14 12//12 13//13
f 16//16 12//12 14//14
f 15//15 11//11 16//16
f 11//11 9//9 8//8
f 11//11 15//15 9//9
f 17//17 18//18 15//15
f 17//17 16//16 34//34
f 17//17 15//15 16//16
f 76//76 34//34 14//14
f 34//34 16//16 14//14
f 31//31 18//18 17//17
f 31//31 17//17 33//33
f 17//17 34//34 33//33
f 20//20 19//19 44//44
f 23//23 20//20 44//44
f 22//22 20//20 21//21
f 20//20 22//22 19//19
f 25//25 24//24 22//22
f 25//25 22//22 21//21
f 26//26 24//24 25//25
f 28//28 20//20 23//23
f 45//45 28//28 23//23
f 26//26 25//25 27//27
f 21//21 1//1 27//27
f 27//27 25//25 21//21
f 28//28 3//3 21//21
f 21//21 20//20 28//28
f 29//29 3//3 28//28
f 5//5 102//102 26//26
f 13//13 10//10 29//29
f 46//46 13//13 29//29
f 47//47 14//14 13//13
f 30//30 9//9 15//15
f 47//47 76//76 14//14
f 18//18 30//30 15//15
f 77//77 34//34 76//76
f 31//31 32//32 18//18
f 36//36 33//33 34//34
f 77//77 36//36 34//34
f 35//35 31//31 33//33
f 31//31 35//35 32//32
f 37//37 33//33 36//36
f 39//39 35//35 33//33
f 38//38 35//35 39//39
f 35//35 38//38 32//32
f 49//49 40//40 37//37
f 39//39 33//33 37//37
f 40//40 39//39 37//37
f 38//38 39//39 50//50
f 42//42 41//41 64//64
f 98//98 72//72 41//41
f 64//64 95//95 42//42
f 42//42 98//98 41//41
f 19//19 98//98 42//42
f 101//101 98//98 19//19
f 43//43 42//42 95//95
f 19//19 22//22 101//101
f 19//19 42//42 44//44
f 44//44 42//42 43//43
f 73//73 44//44 43//43
f 22//22 74//74 101//101
f 73//73 23//23 44//44
f 74//74 22//22 24//24
f 73//73 45//45 23//23
f 26//26 102//102 24//24
f 45//45 29//29 28//28
f 5//5 121//121 102//102
f 46//46 29//29 45//45
f 9//9 121//121 5//5
f 46//46 47//47 13//13
f 18//18 48//48 30//30
f 32//32 48//48 18//18
f 38//38 126//126 32//32
f 49//49 37//37 36//36
f 49//49 36//36 77//77
f 78//78 49//49 135//135
f 50//50 39//39 40//40
f 78//78 40//40 49//49
f 110//110 50//50 51//51
f 50//50 105//105 38//38
f 110//110 105//105 50//50
f 51//51 50//50 40//40
f 52//52 51//51 40//40
f 78//78 52//52 40//40
f 53//53 110//110 51//51
f 51//51 52//52 54//54
f 109//109 54//54 52//52
f 53//53 51//51 54//54
f 79//79 110//110 53//53
f 79//79 53//53 81//81
f 81//81 53//53 54//54
f 55//55 69//69 56//56
f 55//55 56//56 61//61
f 56//56 57//57 61//61
f 57//57 59//59 61//61
f 56//56 59//59 57//57
f 56//56 58//58 59//59
f 59//59 58//58 60//60
f 69//69 58//58 56//56
f 58//58 69//69 60//60
f 55//55 61//61 65//65
f 55//55 65//65 64//64
f 59//59 62//62 61//61
f 61//61 62//62 65//65
f 59//59 60//60 62//62
f 60//60 94//94 62//62
f 62//62 67//67 65//65
f 62//62 70//70 67//67
f 62//62 94//94 70//70
f 65//65 63//63 64//64
f 63//63 65//65 66//66
f 67//67 66//66 65//65
f 67//67 70//70 66//66
f 70//70 63//63 66//66
f 55//55 68//68 71//71
f 71//71 69//69 55//55
f 71//71 93//93 69//69
f 69//69 93//93 60//60
f 60//60 93//93 94//94
f 68//68 55//55 64//64
f 95//95 64//64 63//63
f 96//96 95//95 63//63
f 70//70 96//96 63//63
f 68//68 41//41 71//71
f 41//41 68//68 64//64
f 72//72 93//93 71//71
f 41//41 72//72 71//71
f 73//73 43//43 97//97
f 120//120 45//45 73//73
f 122//122 46//46 45//45
f 9//9 30//30 121//121
f 75//75 47//47 46//46
f 104//104 47//47 75//75
f 48//48 103//103 30//30
f 104//104 76//76 47//47
f 124//124 76//76 104//104
f 77//77 76//76 124//124
f 32//32 126//126 48//48
f 105//105 130//130 38//38
f 78//78 109//109 52//52
f 82//82 81//81 54//54
f 83//83 82//82 54//54
f 83//83 54//54 109//109
f 85//85 80//80 79//79
f 80//80 108//108 79//79
f 85//85 86//86 80//80
f 80//80 86//86 92//92
f 91//91 82//82 83//83
f 92//92 91//91 83//83
f 85//85 79//79 84//84
f 84//84 79//79 81//81
f 86//86 85//85 84//84
f 84//84 81//81 87//87
f 86//86 84//84 87//87
f 88//88 86//86 87//87
f 92//92 86//86 88//88
f 87//87 81//81 82//82
f 87//87 82//82 89//89
f 91//91 89//89 82//82
f 90//90 88//88 87//87
f 90//90 87//87 89//89
f 91//91 88//88 90//90
f 91//91 90//90 89//89
f 91//91 92//92 88//88
f 93//93 72//72 94//94
f 94//94 96//96 70//70
f 94//94 97//97 96//96
f 97//97 43//43 95//95
f 96//96 97//97 95//95
f 98//98 101//101 99//99
f 98//98 99//99 72//72
f 72//72 113//113 94//94
f 99//99 113//113 72//72
f 94//94 113//113 97//97
f 100//100 73//73 97//97
f 97//97 113//113 100//100
f 74//74 115//115 101//101
f 101//101 115//115 99//99
f 100//100 116//116 73//73
f 24//24 117//117 74//74
f 74//74 117//117 115//115
f 120//120 73//73 116//116
f 102//102 117//117 24//24
f 122//122 45//45 120//120
f 30//30 103//103 121//121
f 48//48 123//123 103//103
f 126//126 123//123 48//48
f 129//129 77//77 124//124
f 131//131 49//49 77//77
f 135//135 49//49 131//131
f 38//38 130//130 126//126
f 106//106 105//105 111//111
f 130//130 105//105 106//106
f 106//106 109//109 107//107
f 109//109 78//78 135//135
f 109//109 135//135 107//107
f 108//108 105//105 110//110
f 105//105 108//108 111//111
f 109//109 106//106 111//111
f 79//79 108//108 110//110
f 108//108 112//112 111//111
f 111//111 112//112 83//83
f 109//109 111//111 83//83
f 112//112 108//108 80//80
f 112//112 92//92 83//83
f 80//80 92//92 112//112
f 99//99 114//114 113//113
f 99//99 115//115 114//114
f 114//114 116//116 113//113
f 113//113 116//116 100//100
f 114//114 115//115 117//117
f 114//114 119//119 116//116
f 119//119 117//117 118//118
f 117//117 119//119 114//114
f 117//117 102//102 118//118
f 118//118 137//137 119//119
f 119//119 138//138 116//116
f 138//138 120//120 116//116
f 138//138 122//122 120//120
f 139//139 102//102 121//121
f 102//102 139//139 118//118
f 138//138 140//140 122//122
f 121//121 103//103 141//141
f 75//75 46//46 122//122
f 152//152 104//104 75//75
f 152//152 147//147 104//104
f 123//123 145//145 103//103
f 124//124 104//104 147//147
f 123//123 125//125 145//145
f 123//123 126//126 125//125
f 130//130 127//127 126//126
f 127//127 125//125 126//126
f 125//125 127//127 128//128
f 128//128 132//132 129//129
f 131//131 77//77 129//129
f 132//132 131//131 129//129
f 128//128 127//127 130//130
f 130//130 106//106 136//136
f 130//130 136//136 132//132
f 128//128 130//130 132//132
f 131//131 134//134 135//135
f 134//134 107//107 135//135
f 107//107 134//134 136//136
f 133//133 134//134 131//131
f 133//133 131//131 132//132
f 133//133 132//132 136//136
f 136//136 134//134 133//133
f 136//136 106//106 107//107
f 119//119 137//137 138//138
f 118//118 143//143 137//137
f 118//118 139//139 143//143
f 137//137 143//143 140//140
f 137//137 140//140 138//138
f 140//140 143//143 142//142
f 121//121 141//141 139//139
f 139//139 141//141 143//143
f 142//142 122//122 140//140
f 141//141 150//150 143//143
f 143//143 150//150 142//142
f 142//142 75//75 122//122
f 152//152 75//75 142//142
f 103//103 151//151 141//141
f 103//103 144//144 151//151
f 145//145 144//144 103//103
f 144//144 145//145 149//149
f 146//146 144//144 149//149
f 146//146 148//148 147//147
f 145//145 125//125 149//149
f 147//147 148//148 124//124
f 149//149 129//129 148//148
f 146//146 149//149 148//148
f 149//149 128//128 129//129
f 129//129 124//124 148//148
f 125//125 128//128 149//149
f 141//141 151//151 150//150
f 144//144 150//150 151//151
f 150//150 146//146 152//152
f 152//152 142//142 150//150
f 152//152 146//146 147//147
f 150//150 144//144 146//146
# 300 faces, 0 coords texture

# End of File
