####
#
# OBJ File Generated by Meshlab
#
####
# Object sdRectangle.obj
#
# Vertices: 152
# Faces: 300
#
####
vn -0.639202 -0.031960 0.000002
v -1.432267 -0.364047 -0.011438
vn -0.619072 -0.030907 -0.159358
v -1.450468 -0.343438 -0.223760
vn -0.619287 -0.030932 0.158515
v -1.361424 -0.435752 0.223942
vn -0.639197 -0.032049 -0.000418
v -1.517831 -0.277413 -0.152955
vn -0.000974 -0.000136 -0.639999
v -1.069811 -0.217206 -0.223978
vn -0.619281 -0.030862 -0.158552
v -1.661462 -0.131870 -0.223978
vn -0.640000 -0.000012 -0.000048
v -1.791806 -0.000026 -0.017470
vn -0.624925 0.000393 -0.138091
v -1.790565 0.001197 -0.223967
vn -0.000048 0.000001 -0.640000
v -1.015299 0.058493 -0.223978
vn -0.619277 -0.030964 0.158549
v -1.659815 -0.133646 0.223938
vn -0.619255 0.030960 -0.158635
v -1.582897 0.211362 -0.223974
vn -0.625001 -0.000001 0.137745
v -1.791735 -0.000006 0.223938
vn -0.000452 -0.000029 0.640000
v -1.327714 -0.018078 0.223978
vn -0.619265 0.030955 0.158597
v -1.564459 0.230165 0.223978
vn -0.619257 0.031029 -0.158613
v -1.451364 0.344606 -0.223978
vn -0.639202 0.031957 -0.000013
v -1.547590 0.247294 -0.055761
vn -0.639201 0.031976 -0.000095
v -1.373706 0.423342 -0.108610
vn -0.619144 0.030905 -0.159079
v -1.337486 0.458994 -0.223974
vn -0.619279 -0.030947 -0.158542
v -0.674102 -1.131558 -0.223927
vn -0.639201 -0.031964 -0.000001
v -0.958937 -0.843301 0.057516
vn -0.639201 -0.031963 -0.000002
v -1.156238 -0.643527 -0.013017
vn -0.619261 -0.030968 -0.158611
v -0.905482 -0.897275 -0.223972
vn -0.619267 -0.030964 0.158588
v -1.015655 -0.785797 0.223942
vn -0.000052 -0.000004 -0.640000
v -0.218042 -0.659138 -0.223978
vn -0.619279 -0.030906 -0.158549
v -1.149828 -0.649991 -0.223959
vn -0.618787 -0.030638 -0.160513
v -1.269641 -0.526094 -0.223976
vn -0.639207 -0.031846 -0.000834
v -1.272290 -0.526026 -0.170044
vn -0.619262 -0.030964 0.158606
v -1.284318 -0.513805 0.223971
vn -0.000251 -0.000008 0.640000
v -0.808042 -0.276836 0.223978
vn -0.000008 0.000001 -0.640000
v -0.458218 0.194775 -0.223978
vn -0.619269 0.030922 -0.158589
v -1.229708 0.569006 -0.223967
vn -0.000123 0.000012 -0.640000
v -0.585611 0.607522 -0.223978
vn -0.639202 0.031962 0.000022
v -1.167051 0.632586 0.001410
vn -0.619266 0.030990 0.158586
v -1.337446 0.460053 0.223972
vn -0.619275 0.031016 -0.158546
v -1.051391 0.749662 -0.223951
vn -0.619218 0.030898 0.158792
v -1.108611 0.691048 0.223968
vn -0.619266 0.031020 0.158578
v -0.989001 0.812838 0.223945
vn -0.619071 0.030962 -0.159352
v -0.884167 0.917030 -0.223977
vn -0.639201 0.031974 -0.000171
v -0.882290 0.920902 -0.088494
vn -0.619386 0.030955 0.158124
v -0.822306 0.981602 0.223678
vn -0.619264 -0.031022 -0.158588
v -0.373664 -1.435551 -0.223898
vn -0.639202 -0.031962 -0.000013
v -0.547938 -1.259432 -0.040602
vn -0.619273 -0.030983 0.158558
v -0.678120 -1.127533 0.223898
vn -0.619264 -0.030988 0.158595
v -0.815566 -0.988414 0.223950
vn -0.000101 -0.000008 0.640000
v -0.136086 -0.529074 0.223978
vn -0.000005 0.000000 0.640000
v -0.005742 -0.144314 0.223978
vn 0.000005 0.000000 0.640000
v -0.559751 0.155776 0.223978
vn -0.000010 0.000001 -0.640000
v 0.064512 0.369561 -0.223978
vn -0.000901 0.000181 0.639999
v -0.485534 0.814281 0.223985
vn -0.619274 0.030899 -0.158570
v -0.736082 1.068726 -0.223960
vn -0.639202 0.031952 0.000003
v -0.559298 1.247936 0.038470
vn -0.619251 0.030951 0.158653
v -0.603514 1.202960 0.223966
vn -0.639202 0.031952 -0.000016
v -0.393308 1.415991 -0.137186
vn -0.619280 0.030958 0.158536
v -0.384312 1.425085 0.223898
vn -0.619188 -0.031517 -0.158788
v -0.069632 -1.743718 -0.223922
vn -0.618505 -0.031219 -0.161482
v -0.029494 -1.782079 -0.223825
vn -0.605990 -0.131610 -0.158288
v -0.007772 -1.805917 -0.223857
vn 0.618332 -0.028548 -0.162637
v 0.028272 -1.783272 -0.223804
vn 0.575035 -0.204988 -0.192134
v 0.007385 -1.806723 -0.223897
vn 0.639200 -0.031983 -0.000544
v 0.084962 -1.728194 -0.164358
vn -0.624003 -0.142196 -0.000304
v -0.008118 -1.806000 -0.161480
vn 0.604215 -0.211008 0.000008
v 0.007392 -1.806734 0.000110
vn -0.617962 -0.034428 0.162906
v -0.048529 -1.764913 0.223921
vn -0.639202 -0.031957 0.000005
v -0.196065 -1.615709 0.038442
vn -0.624056 -0.141963 0.000141
v -0.008118 -1.806000 0.099416
vn -0.000653 -0.510297 0.386259
v -0.000629 -1.808212 0.223045
vn 0.625162 -0.137008 -0.001220
v 0.007394 -1.806734 0.174146
vn -0.639204 -0.031913 -0.000368
v -0.202351 -1.609338 -0.127725
vn 0.618865 -0.031346 -0.160074
v 0.134630 -1.676561 -0.223978
vn 0.620084 -0.031454 0.155262
v 0.116989 -1.695647 0.223498
vn -0.618914 -0.030845 -0.159980
v -0.200987 -1.608066 -0.223953
vn 0.619258 -0.030963 -0.158621
v 0.460476 -1.347966 -0.223964
vn 0.000307 -0.000080 0.640000
v -0.031738 -0.945290 0.223980
vn 0.000003 0.000000 -0.640000
v -0.157865 -0.843098 -0.223978
vn 0.000055 0.000003 0.640000
v 0.612377 0.019938 0.223978
vn -0.000033 0.000004 0.640000
v -0.670694 0.355928 0.223978
vn 0.000098 0.000001 0.640000
v -0.020342 0.586920 0.223980
vn -0.002288 -0.000098 0.639996
v -0.376657 1.093116 0.223980
vn -0.619252 0.031002 -0.158639
v -0.241406 1.569779 -0.223936
vn 0.619299 0.030919 -0.158469
v 0.190651 1.621178 -0.223878
vn -0.639202 0.031959 -0.000001
v -0.180453 1.631509 -0.036718
vn -0.619031 0.031454 0.159411
v -0.141921 1.670526 0.223966
vn 0.619238 0.031082 0.158675
v 0.214862 1.596672 0.223962
vn -0.623875 0.142753 -0.001013
v -0.008118 1.806000 -0.176145
vn -0.616266 0.067692 -0.158853
v -0.009571 1.802043 -0.223974
vn 0.430716 0.372786 -0.291743
v 0.007434 1.806706 -0.223810
vn -0.624005 0.142189 -0.000014
v -0.008118 1.806001 0.037626
vn 0.604226 0.210978 0.000011
v 0.007392 1.806734 0.086117
vn -0.569745 0.177263 0.231449
v -0.008209 1.805898 0.224090
vn 0.597978 0.192372 0.122538
v 0.007392 1.806735 0.222221
vn 0.620034 0.030299 0.155690
v 0.080448 1.732692 0.223254
vn 0.639201 0.031963 0.000002
v 0.085991 1.727187 -0.038797
vn 0.619330 -0.030988 -0.158337
v 0.225675 -1.585708 -0.223832
vn 0.639202 -0.031961 0.000002
v 0.293894 -1.516651 -0.033597
vn -0.619265 -0.030974 0.158593
v -0.402301 -1.406858 0.223924
vn 0.619277 -0.030991 0.158541
v 0.345417 -1.464496 0.223896
vn 0.619251 -0.030960 0.158649
v 0.499079 -1.308816 0.223976
vn -0.619265 -0.030975 -0.158592
v -0.571772 -1.235240 -0.223956
vn 0.619272 -0.030918 -0.158574
v 0.655856 -1.149968 -0.223928
vn 0.619293 -0.030926 0.158493
v 0.715456 -1.089450 0.223803
vn 0.000114 -0.000085 -0.640000
v 0.041229 -1.081922 -0.223984
vn 0.000020 0.000001 -0.640000
v 0.142353 -0.413109 -0.223978
vn 0.000397 0.000014 -0.640000
v 0.583490 0.118068 -0.223979
vn 0.000193 0.000000 0.640000
v 0.519770 0.228979 0.223978
vn 0.619260 0.030991 -0.158609
v 0.639092 1.167118 -0.223979
vn 0.639202 0.031960 -0.000001
v 0.696622 1.108888 -0.052266
vn 0.619325 0.030951 0.158361
v 0.728194 1.076924 0.223857
vn 0.619227 0.030958 -0.158742
v 0.382687 1.426117 -0.223946
vn 0.619261 0.030973 0.158608
v 0.509050 1.298787 0.223958
vn -0.619262 0.030957 -0.158606
v -0.447731 1.360796 -0.223945
vn 0.639202 0.031961 -0.000024
v 0.418769 1.390226 0.029157
vn 0.639204 0.031909 -0.000059
v 0.318528 1.491708 -0.080814
vn 0.639202 -0.031959 0.000023
v 0.689284 -1.116326 0.055976
vn 0.639202 -0.031954 -0.000238
v 0.843455 -0.960222 -0.100145
vn 0.619030 -0.031071 -0.159489
v 0.871398 -0.929747 -0.223961
vn 0.619270 -0.030983 0.158570
v 0.974760 -0.827251 0.223936
vn 0.619263 -0.031008 -0.158593
v 1.041249 -0.759907 -0.223975
vn 0.619229 -0.030969 -0.158735
v 1.255696 -0.542416 -0.223978
vn 0.639202 -0.031956 -0.000014
v 1.102343 -0.698098 -0.023730
vn 0.000939 0.000010 0.639999
v 0.570622 -0.614059 0.223984
vn 0.000020 -0.000003 -0.640000
v 0.186916 -0.166766 -0.223978
vn 0.000454 -0.000070 0.640000
v 0.679924 -0.356028 0.223980
vn 0.000050 0.000000 -0.640000
v 0.808108 0.380327 -0.223978
vn 0.001760 0.000000 0.639998
v 0.782742 0.434017 0.223982
vn 0.619239 0.030954 -0.158699
v 1.269612 0.528278 -0.223974
vn 0.000108 0.000007 -0.640000
v 0.260704 0.656272 -0.223978
vn 0.619279 0.030935 -0.158545
v 1.082698 0.717978 -0.223942
vn 0.639203 0.031941 -0.000021
v 1.129709 0.670410 -0.089582
vn 0.619274 0.030936 0.158566
v 1.221865 0.576985 0.223917
vn 0.619265 0.030959 -0.158594
v 0.873944 0.929346 -0.223978
vn 0.004638 0.000343 0.639983
v 0.713366 0.779250 0.223978
vn 0.619371 0.031320 0.158110
v 0.975719 0.826301 0.223654
vn 0.620548 0.028551 0.153965
v 0.876460 0.924269 0.223491
vn 0.619669 0.029297 0.157327
v 0.851996 0.951388 0.223968
vn 0.000628 0.000097 0.640000
v 0.355586 0.987070 0.223982
vn 0.639203 0.031921 0.000101
v 0.841333 0.962369 0.102168
vn 0.639201 -0.031981 -0.000096
v 1.293822 -0.504243 -0.135520
vn 0.619303 -0.030973 0.158446
v 1.288095 -0.510016 0.223826
vn 0.619134 -0.030923 -0.159114
v 1.497911 -0.296565 -0.223968
vn 0.619265 -0.031018 0.158582
v 1.436634 -0.359610 0.223934
vn 0.619184 -0.030922 -0.158917
v 1.707262 -0.084821 -0.223976
vn 0.619267 -0.030964 0.158589
v 1.607330 -0.186791 0.223969
vn 0.639202 -0.031955 -0.000249
v 1.522030 -0.273179 -0.147607
vn 0.619319 0.030915 -0.158395
v 1.657534 0.135575 -0.223758
vn 0.619275 0.030900 -0.158568
v 1.482810 0.312790 -0.223971
vn 0.639202 0.031944 0.000001
v 1.629326 0.164558 0.051411
vn 0.619270 0.030994 0.158571
v 1.619595 0.174250 0.223916
vn 0.619465 0.031214 0.157761
v 1.501282 0.294117 0.223598
vn 0.639201 0.031962 -0.000019
v 1.415798 0.380724 -0.013386
vn 0.640000 0.000046 -0.000352
v 1.791808 -0.000012 -0.136577
vn 0.624775 -0.000389 -0.138767
v 1.789719 -0.000930 -0.223978
vn 0.624987 -0.000019 0.137808
v 1.791590 -0.000164 0.223965
# 152 vertices, 0 vertices normals

f 12//12 7//7 10//10
f 2//2 26//26 27//27
f 4//4 2//2 27//27
f 4//4 27//27 1//1
f 1//1 21//21 3//3
f 6//6 2//2 4//4
f 6//6 5//5 2//2
f 5//5 26//26 2//2
f 1//1 3//3 10//10
f 29//29 10//10 3//3
f 6//6 4//4 7//7
f 7//7 4//4 1//1
f 7//7 1//1 10//10
f 8//8 6//6 7//7
f 6//6 9//9 5//5
f 9//9 6//6 8//8
f 12//12 10//10 13//13
f 16//16 11//11 8//8
f 16//16 8//8 7//7
f 16//16 7//7 12//12
f 14//14 12//12 13//13
f 16//16 12//12 14//14
f 15//15 11//11 16//16
f 11//11 9//9 8//8
f 11//11 15//15 9//9
f 17//17 18//18 15//15
f 17//17 16//16 34//34
f 17//17 15//15 16//16
f 76//76 34//34 14//14
f 34//34 16//16 14//14
f 31//31 18//18 17//17
f 31//31 17//17 33//33
f 17//17 34//34 33//33
f 20//20 19//19 44//44
f 23//23 20//20 44//44
f 22//22 20//20 21//21
f 20//20 22//22 19//19
f 25//25 24//24 22//22
f 25//25 22//22 21//21
f 26//26 24//24 25//25
f 28//28 20//20 23//23
f 45//45 28//28 23//23
f 26//26 25//25 27//27
f 21//21 1//1 27//27
f 27//27 25//25 21//21
f 28//28 3//3 21//21
f 21//21 20//20 28//28
f 29//29 3//3 28//28
f 5//5 102//102 26//26
f 13//13 10//10 29//29
f 46//46 13//13 29//29
f 47//47 14//14 13//13
f 30//30 9//9 15//15
f 47//47 76//76 14//14
f 18//18 30//30 15//15
f 77//77 34//34 76//76
f 31//31 32//32 18//18
f 36//36 33//33 34//34
f 77//77 36//36 34//34
f 35//35 31//31 33//33
f 31//31 35//35 32//32
f 37//37 33//33 36//36
f 39//39 35//35 33//33
f 38//38 35//35 39//39
f 35//35 38//38 32//32
f 49//49 40//40 37//37
f 39//39 33//33 37//37
f 40//40 39//39 37//37
f 38//38 39//39 50//50
f 42//42 41//41 64//64
f 98//98 72//72 41//41
f 64//64 95//95 42//42
f 42//42 98//98 41//41
f 19//19 98//98 42//42
f 101//101 98//98 19//19
f 43//43 42//42 95//95
f 19//19 22//22 101//101
f 19//19 42//42 44//44
f 44//44 42//42 43//43
f 73//73 44//44 43//43
f 22//22 74//74 101//101
f 73//73 23//23 44//44
f 74//74 22//22 24//24
f 73//73 45//45 23//23
f 26//26 102//102 24//24
f 45//45 29//29 28//28
f 5//5 121//121 102//102
f 46//46 29//29 45//45
f 9//9 121//121 5//5
f 46//46 47//47 13//13
f 18//18 48//48 30//30
f 32//32 48//48 18//18
f 38//38 126//126 32//32
f 49//49 37//37 36//36
f 49//49 36//36 77//77
f 78//78 49//49 135//135
f 50//50 39//39 40//40
f 78//78 40//40 49//49
f 110//110 50//50 51//51
f 50//50 105//105 38//38
f 110//110 105//105 50//50
f 51//51 50//50 40//40
f 52//52 51//51 40//40
f 78//78 52//52 40//40
f 53//53 110//110 51//51
f 51//51 52//52 54//54
f 109//109 54//54 52//52
f 53//53 51//51 54//54
f 79//79 110//110 53//53
f 79//79 53//53 81//81
f 81//81 53//53 54//54
f 55//55 69//69 56//56
f 55//55 56//56 61//61
f 56//56 57//57 61//61
f 57//57 59//59 61//61
f 56//56 59//59 57//57
f 56//56 58//58 59//59
f 59//59 58//58 60//60
f 69//69 58//58 56//56
f 58//58 69//69 60//60
f 55//55 61//61 65//65
f 55//55 65//65 64//64
f 59//59 62//62 61//61
f 61//61 62//62 65//65
f 59//59 60//60 62//62
f 60//60 94//94 62//62
f 62//62 67//67 65//65
f 62//62 70//70 67//67
f 62//62 94//94 70//70
f 65//65 63//63 64//64
f 63//63 65//65 66//66
f 67//67 66//66 65//65
f 67//67 70//70 66//66
f 70//70 63//63 66//66
f 55//55 68//68 71//71
f 71//71 69//69 55//55
f 71//71 93//93 69//69
f 69//69 93//93 60//60
f 60//60 93//93 94//94
f 68//68 55//55 64//64
f 95//95 64//64 63//63
f 96//96 95//95 63//63
f 70//70 96//96 63//63
f 68//68 41//41 71//71
f 41//41 68//68 64//64
f 72//72 93//93 71//71
f 41//41 72//72 71//71
f 73//73 43//43 97//97
f 120//120 45//45 73//73
f 122//122 46//46 45//45
f 9//9 30//30 121//121
f 75//75 47//47 46//46
f 104//104 47//47 75//75
f 48//48 103//103 30//30
f 104//104 76//76 47//47
f 124//124 76//76 104//104
f 77//77 76//76 124//124
f 32//32 126//126 48//48
f 105//105 130//130 38//38
f 78//78 109//109 52//52
f 82//82 81//81 54//54
f 83//83 82//82 54//54
f 83//83 54//54 109//109
f 85//85 80//80 79//79
f 80//80 108//108 79//79
f 85//85 86//86 80//80
f 80//80 86//86 92//92
f 91//91 82//82 83//83
f 92//92 91//91 83//83
f 85//85 79//79 84//84
f 84//84 79//79 81//81
f 86//86 85//85 84//84
f 84//84 81//81 87//87
f 86//86 84//84 87//87
f 88//88 86//86 87//87
f 92//92 86//86 88//88
f 87//87 81//81 82//82
f 87//87 82//82 89//89
f 91//91 89//89 82//82
f 90//90 88//88 87//87
f 90//90 87//87 89//89
f 91//91 88//88 90//90
f 91//91 90//90 89//89
f 91//91 92//92 88//88
f 93//93 72//72 94//94
f 94//94 96//96 70//70
f 94//94 97//97 96//96
f 97//97 43//43 95//95
f 96//96 97//97 95//95
f 98//98 101//101 99//99
f 98//98 99//99 72//72
f 72//72 113//113 94//94
f 99//99 113//113 72//72
f 94//94 113//113 97//97
f 100//100 73//73 97//97
f 97//97 113//113 100//100
f 74//74 115//115 101//101
f 101//101 115//115 99//99
f 100//100 116//116 73//73
f 24//24 117//117 74//74
f 74//74 117//117 115//115
f 120//120 73//73 116//116
f 102//102 117//117 24//24
f 122//122 45//45 120//120
f 30//30 103//103 121//121
f 48//48 123//123 103//103
f 126//126 123//123 48//48
f 129//129 77//77 124//124
f 131//131 49//49 77//77
f 135//135 49//49 131//131
f 38//38 130//130 126//126
f 106//106 105//105 111//111
f 130//130 105//105 106//106
f 106//106 109//109 107//107
f 109//109 78//78 135//135
f 109//109 135//135 107//107
f 108//108 105//105 110//110
f 105//105 108//108 111//111
f 109//109 106//106 111//111
f 79//79 108//108 110//110
f 108//108 112//112 111//111
f 111//111 112//112 83//83
f 109//109 111//111 83//83
f 112//112 108//108 80//80
f 112//112 92//92 83//83
f 80//80 92//92 112//112
f 99//99 114//114 113//113
f 99//99 115//115 114//114
f 114//114 116//116 113//113
f 113//113 116//116 100//100
f 114//114 115//115 117//117
f 114//114 119//119 116//116
f 119//119 117//117 118//118
f 117//117 119//119 114//114
f 117//117 102//102 118//118
f 118//118 137//137 119//119
f 119//119 138//138 116//116
f 138//138 120//120 116//116
f 138//138 122//122 120//120
f 139//139 102//102 121//121
f 102//102 139//139 118//118
f 138//138 140//140 122//122
f 121//121 103//103 141//141
f 75//75 46//46 122//122
f 152//152 104//104 75//75
f 152//152 147//147 104//104
f 123//123 145//145 103//103
f 124//124 104//104 147//147
f 123//123 125//125 145//145
f 123//123 126//126 125//125
f 130//130 127//127 126//126
f 127//127 125//125 126//126
f 125//125 127//127 128//128
f 128//128 132//132 129//129
f 131//131 77//77 129//129
f 132//132 131//131 129//129
f 128//128 127//127 130//130
f 130//130 106//106 136//136
f 130//130 136//136 132//132
f 128//128 130//130 132//132
f 131//131 134//134 135//135
f 134//134 107//107 135//135
f 107//107 134//134 136//136
f 133//133 134//134 131//131
f 133//133 131//131 132//132
f 133//133 132//132 136//136
f 136//136 134//134 133//133
f 136//136 106//106 107//107
f 119//119 137//137 138//138
f 118//118 143//143 137//137
f 118//118 139//139 143//143
f 137//137 143//143 140//140
f 137//137 140//140 138//138
f 140//140 143//143 142//142
f 121//121 141//141 139//139
f 139//139 141//141 143//143
f 142//142 122//122 140//140
f 141//141 150//150 143//143
f 143//143 150//150 142//142
f 142//142 75//75 122//122
f 152//152 75//75 142//142
f 103//103 151//151 141//141
f 103//103 144//144 151//151
f 145//145 144//144 103//103
f 144//144 145//145 149//149
f 146//146 144//144 149//149
f 146//146 148//148 147//147
f 145//145 125//125 149//149
f 147//147 148//148 124//124
f 149//149 129//129 148//148
f 146//146 149//149 148//148
f 149//149 128//128 129//129
f 129//129 124//124 148//148
f 125//125 128//128 149//149
f 141//141 151//151 150//150
f 144//144 150//150 151//151
f 150//150 146//146 152//152
f 152//152 142//142 150//150
f 152//152 146//146 147//147
f 150//150 144//144 146//146
# 300 faces, 0 coords texture

# End of File
